Coordinates
version=1
nRows=14
nColumns=36
inDegrees=yes

Units are S.I. units (second, meters, Newtons, ...)
If the header above contains a line with 'inDegrees', this indicates whether rotational values are in degrees (yes) or radians (no).

endheader
time	pelvis_tilt	pelvis_list	pelvis_rotation	pelvis_tx	pelvis_ty	pelvis_tz	hip_flexion_r	hip_adduction_r	hip_rotation_r	knee_angle_r	knee_angle_r_beta	ankle_angle_r	subtalar_angle_r	mtp_angle_r	hip_flexion_l	hip_adduction_l	hip_rotation_l	knee_angle_l	knee_angle_l_beta	ankle_angle_l	subtalar_angle_l	mtp_angle_l	lumbar_extension	lumbar_bending	lumbar_rotation	arm_flex_r	arm_add_r	arm_rot_r	elbow_flex_r	pro_sup_r	arm_flex_l	arm_add_l	arm_rot_l	elbow_flex_l	pro_sup_l
      0.00000000	      3.51547943	      0.99124490	     -7.49955014	      0.51536729	      0.92961565	      0.78016437	     24.95624116	     -2.07637728	      4.29199861	     75.67608939	      1.32079692	     -3.94818655	    -17.53400561	     -7.38808686	      3.91992255	      4.12340409	      0.48163649	     12.79214544	      0.22326506	     10.35142932	     -9.20754570	     -7.38808686	    -10.01741221	     -2.79123447	      1.81292284	     -2.00634486	     -8.61301141	    -14.06422578	     30.22737641	     91.81391780	     10.73569414	    -11.72547026	      8.55855575	     20.30453677	     86.54824580
      0.01666670	      4.79579397	      0.23932540	     -8.45349823	      0.51514368	      0.93318773	      0.77948573	     22.64924929	     -0.97698793	      3.72153119	     70.10047340	      1.22348407	      1.69218741	    -14.14182389	     -7.39232555	      0.97497153	      3.69743825	     -0.11463430	     12.88915386	      0.22495817	     11.87560968	     -8.58553543	     -7.39232555	    -11.41754656	     -2.21796991	      1.88129978	     -1.57141522	     -8.83477266	    -13.97302290	     29.23018646	     91.93181398	     10.98924559	    -11.57723297	      8.44567264	     20.85687501	     86.79919771
      0.03333330	      5.18730929	      0.17205275	     -8.44282463	      0.51334860	      0.93705214	      0.77920885	     21.72187486	     -0.66028643	      3.02603949	     63.89563929	      1.11518928	      4.92212248	    -11.84733470	     -7.38990178	     -0.99818048	      3.73231933	      0.28906289	     12.51140192	      0.21836516	     12.09034233	     -8.68972412	     -7.38990178	    -11.90308738	     -2.16862986	      1.13980793	     -1.34578603	     -8.86881478	    -13.55026776	     27.52834363	     91.07490918	     11.37802940	    -11.95274248	      7.95161895	     21.27183388	     86.25173784
      0.05000000	      4.68302180	      0.22622641	     -8.09764274	      0.51205398	      0.93792104	      0.77797770	     22.04044085	     -0.68318979	      1.98587835	     57.66903756	      1.00651458	      5.90531823	    -10.79657582	     -7.40670127	     -1.81983666	      3.62104669	     -0.42138929	     12.44402837	      0.21718927	     12.78151316	     -7.20348856	     -7.40670127	    -11.04242848	     -2.08102567	     -0.00221505	     -1.57881175	     -9.17802349	    -10.97491168	     25.56401001	     90.24086144	     11.27852202	    -12.40751418	      7.44216101	     21.85769606	     87.00126047
      0.06666670	      3.77742258	      0.67625370	     -8.01057484	      0.51116552	      0.93623444	      0.77667849	     23.35398420	     -0.85278073	      1.63202920	     52.17334482	      0.91059665	      5.88877207	    -10.42502830	     -7.41029115	     -1.93332884	      4.00642052	     -1.03266249	     12.59924666	      0.21989834	     13.45409349	     -6.45223214	     -7.41029115	     -9.60979208	     -2.48002818	     -0.52420468	     -2.90271568	     -8.87300742	    -11.39690278	     24.53098754	     88.89961782	     11.30011650	    -12.58060233	      6.14752349	     22.32804928	     86.35465286
      0.08333330	      2.74582243	      1.10424108	     -8.03001694	      0.50983916	      0.93327832	      0.77556850	     24.93760493	     -1.00041763	      1.57983050	     46.95299852	      0.81948442	      5.49254190	    -10.46242476	     -7.41472534	     -1.86135387	      4.38913927	     -1.61680811	     12.71067733	      0.22184317	     14.50192884	     -5.47087366	     -7.41472534	     -8.05761926	     -2.79155498	     -1.19456828	     -4.47765211	     -8.48474493	    -11.93893537	     24.17802164	     87.66507028	     11.02043069	    -12.84297798	      4.67698233	     23.26387442	     85.76168766
      0.10000000	      1.68192466	      1.41795499	     -8.00971148	      0.50664113	      0.93052720	      0.77576410	     26.52858370	     -1.08880663	      1.50491778	     41.67144241	      0.72730387	      5.00298529	    -10.22679369	     -7.41929942	     -1.84503209	      4.70583364	     -1.84350782	     12.62345710	      0.22032089	     15.82161232	     -4.81346617	     -7.41929942	     -6.53886929	     -3.04284184	     -1.74119190	     -6.24076975	     -8.15513072	    -12.50844607	     24.33797539	     85.82802059	     10.94659920	    -13.16764200	      3.47281300	     24.79418853	     84.29319665
      0.11666670	      0.60756615	      1.65608385	     -7.85122447	      0.50158666	      0.92712172	      0.77767700	     28.12054194	     -1.11830665	      1.29420912	     36.27199881	      0.63306581	      4.48639162	     -9.68454223	     -7.41897316	     -1.86654787	      4.92699521	     -1.98454907	     12.46966682	      0.21763674	     17.45060041	     -4.09624670	     -7.41897316	     -5.17364957	     -3.34722365	     -2.40936682	     -7.69382806	     -7.83531874	    -13.10339364	     24.83312159	     84.22144706	     11.23827611	    -13.72451845	      2.57145010	     26.79149765	     83.02163560
      0.13333330	     -0.48656598	      1.88223909	     -7.47956997	      0.49631382	      0.92210591	      0.77944568	     29.75738381	     -1.20376538	      0.84076143	     30.90395074	      0.53937569	      4.03389528	     -8.88157069	     -7.41595559	     -1.81430301	      5.10361731	     -1.83764153	     12.47195360	      0.21767665	     18.95259501	     -3.89266525	     -7.41595559	     -3.96400386	     -3.70246861	     -3.07832673	     -8.44640308	     -7.47506707	    -13.52486409	     24.97280654	     82.91242394	     11.95143031	    -14.34615483	      2.03456417	     28.88560335	     81.98459865
      0.15000000	     -1.65854846	      2.01614910	     -6.81553735	      0.49351910	      0.91522033	      0.77986651	     31.39492913	     -1.31187995	      0.16314662	     25.61556817	      0.44707600	      3.77909686	     -7.86431243	     -7.41510055	     -1.51761049	      5.07380580	     -1.75064468	     12.85513012	      0.22436435	     20.37899345	     -3.49927435	     -7.41510055	     -2.87914525	     -4.00076724	     -3.83818714	     -9.13082700	     -7.15559415	    -13.89644850	     25.23271202	     81.55627870	     12.72308071	    -15.05144622	      1.72592273	     31.31573541	     80.98857307
      0.16666670	     -2.91350311	      2.02078123	     -6.01378052	      0.49501663	      0.90674284	      0.78007387	     33.01172569	     -1.32768561	     -0.39149518	     20.52748500	      0.35827220	      3.92174050	     -6.73659700	     -7.41514660	     -1.09426155	      4.79857740	     -1.99724811	     13.49848569	      0.23559302	     21.96413672	     -2.44278804	     -7.41514660	     -1.77540076	     -4.12110543	     -4.47079957	     -9.96756190	     -7.01349540	    -14.11341636	     25.77279165	     81.26407283	     13.26692787	    -15.75893306	      1.70853944	     33.73365868	     81.17156777
      0.18333330	     -4.20438636	      1.96964314	     -5.20135243	      0.49966088	      0.89862081	      0.78027173	     34.61742575	     -1.36495006	     -0.92580532	     15.90417910	      0.27758029	      5.06235707	     -4.77255209	     -7.41138624	     -0.73610561	      4.49455340	     -1.90619611	     14.12260129	      0.24648589	     23.22422681	     -1.94732398	     -7.41138624	     -0.51587082	     -4.11696615	     -4.92191752	    -10.68032754	     -6.83364009	    -14.33182134	     25.91441961	     81.23556569	     13.58822671	    -16.12874723	      1.44030121	     35.53352639	     81.43426532
      0.20000000	     -5.18204202	      1.72083442	     -4.63001463	      0.50460969	      0.89511807	      0.77957500	     35.75628465	     -1.14747725	     -0.89518653	     11.97712708	      0.20904030	      6.23762913	     -3.30391691	     -7.40946322	     -0.92178392	      3.97981438	     -2.18578803	     14.57243045	      0.25433689	     24.53708020	     -0.81402064	     -7.40946322	      0.43332445	     -3.68639627	     -5.34459434	    -11.47921140	     -6.91871254	    -14.42160125	     26.74877853	     80.79641711	     13.44590894	    -16.34026183	      1.00093456	     37.13409031	     81.08638218
      0.21666670	     -5.90388342	      1.39547959	     -4.24816787	      0.50753070	      0.89506503	      0.77802374	     36.62832829	     -0.89852878	     -1.06639563	      9.44851635	      0.16490772	      7.51419693	     -1.54079987	     -7.41190405	     -1.48573727	      3.47762847	     -2.16069276	     14.86353420	      0.25941761	     25.44174483	     -0.20623564	     -7.41190405	      1.24915740	     -3.12385497	     -5.59869899	    -11.72364999	     -7.19761978	    -14.27043963	     26.30540331	     79.73649257	     13.16992754	    -16.16871908	      0.20435968	     38.15913406	     79.93185851
